HIERARCHY
ROOT Hips
{
	OFFSET -0.001795 -0.223333 0.028219
	CHANNELS 6 Xposition Yposition Zposition Zrotation Yrotation Xrotation 
	JOINT LeftUpLeg
	{
		OFFSET 0.069520 -0.091406 -0.006815
		CHANNELS 3 Zrotation Yrotation Xrotation
		JOINT LeftLeg
		{
			OFFSET 0.034277 -0.375199 -0.004496
			CHANNELS 3 Zrotation Yrotation Xrotation
			JOINT LeftFoot
			{
				OFFSET -0.013596 -0.397961 -0.043693
				CHANNELS 3 Zrotation Yrotation Xrotation
				JOINT LeftToe
				{
					OFFSET 0.026358 -0.055791 0.119288
					CHANNELS 3 Zrotation Yrotation Xrotation
					End Site
					{
						OFFSET 0.000000 0.000000 0.000000
					}
				}
			}
		}
	}
	JOINT RightUpLeg
	{
		OFFSET -0.067670 -0.090522 -0.004320
		CHANNELS 3 Zrotation Yrotation Xrotation
		JOINT RightLeg
		{
			OFFSET -0.038290 -0.382569 -0.008850
			CHANNELS 3 Zrotation Yrotation Xrotation
			JOINT RightFoot
			{
				OFFSET 0.015774 -0.398415 -0.042312
				CHANNELS 3 Zrotation Yrotation Xrotation
				JOINT RightToe
				{
					OFFSET -0.025372 -0.048144 0.123348
					CHANNELS 3 Zrotation Yrotation Xrotation
					End Site
					{
						OFFSET 0.000000 0.000000 0.000000
					}
				}
			}
		}
	}
	JOINT Spine
	{
		OFFSET -0.002533 0.108963 -0.026696
		CHANNELS 3 Zrotation Yrotation Xrotation
		JOINT Spine1
		{
			OFFSET 0.005487 0.135180 0.001092
			CHANNELS 3 Zrotation Yrotation Xrotation
			JOINT Spine2
			{
				OFFSET 0.001457 0.052922 0.025425
				CHANNELS 3 Zrotation Yrotation Xrotation
				JOINT Neck
				{
					OFFSET -0.002778 0.213870 -0.042857
					CHANNELS 3 Zrotation Yrotation Xrotation
					JOINT Head
					{
						OFFSET 0.005152 0.064970 0.051349
						CHANNELS 3 Zrotation Yrotation Xrotation
						End Site
						{
							OFFSET 0.000000 0.000000 0.000000
						}
					}
				}
				JOINT LeftShoulder
				{
					OFFSET 0.078845 0.121749 -0.034090
					CHANNELS 3 Zrotation Yrotation Xrotation
					JOINT LeftArm
					{
						OFFSET 0.090977 0.030469 -0.008868
						CHANNELS 3 Zrotation Yrotation Xrotation
						JOINT LeftForeArm
						{
							OFFSET 0.259612 -0.012772 -0.027456
							CHANNELS 3 Zrotation Yrotation Xrotation
							JOINT LeftHand
							{
								OFFSET 0.249234 0.008986 -0.001171
								CHANNELS 3 Zrotation Yrotation Xrotation
								End Site
								{
									OFFSET 0.000000 0.000000 0.000000
								}
							}
						}
					}
				}
				JOINT RightShoulder
				{
					OFFSET -0.081759 0.118833 -0.038615
					CHANNELS 3 Zrotation Yrotation Xrotation
					JOINT RightArm
					{
						OFFSET -0.096012 0.032551 -0.009143
						CHANNELS 3 Zrotation Yrotation Xrotation
						JOINT RightForeArm
						{
							OFFSET -0.253742 -0.013329 -0.021401
							CHANNELS 3 Zrotation Yrotation Xrotation
							JOINT RightHand
							{
								OFFSET -0.255298 0.007772 -0.005559
								CHANNELS 3 Zrotation Yrotation Xrotation
								End Site
								{
									OFFSET 0.000000 0.000000 0.000000
								}
							}
						}
					}
				}
			}
		}
	}
}
MOTION
Frames: 13
Frame Time: 0.050000
-0.006476 0.870671 -0.059057 -2.507449 8.245703 -5.863198 9.831948 -0.555044 -19.600252 -7.357932 0.188535 45.883257 1.209023 7.061798 11.264664 0.000000 0.000000 0.000000 0.234410 2.227215 -26.299794 -6.191100 3.878859 54.295427 7.185802 12.524251 7.298735 0.000000 0.000000 0.000000 1.665441 -2.391253 29.612262 -2.672691 1.058117 8.249858 -7.443779 4.399197 9.934619 8.433591 -3.210975 -16.270981 0.000000 0.000000 0.000000 3.245208 -37.578413 11.369460 -20.784742 -55.535295 4.422994 28.054862 -5.642482 -1.423640 0.000000 0.000000 0.000000 -3.875416 24.569210 7.960355 36.683562 56.275773 15.372076 -25.195616 7.892712 -0.754458 0.000000 0.000000 0.000000 
-0.006611 0.874148 -0.060256 -2.538231 8.616801 -5.522625 9.961525 -0.557203 -19.471161 -7.437892 0.203023 44.695189 0.960488 6.698040 11.266465 0.000000 0.000000 0.000000 0.021874 2.135020 -25.996209 -6.080938 3.646026 53.196582 7.294661 12.912216 7.106676 0.000000 0.000000 0.000000 1.518403 -2.383308 29.572483 -2.687941 1.039475 8.554405 -7.513403 4.199750 10.048833 8.516759 -3.269974 -16.285152 0.000000 0.000000 0.000000 3.922231 -37.979519 11.356565 -18.342743 -55.542294 3.332098 27.290153 -4.799610 -1.185475 0.000000 0.000000 0.000000 -4.448857 24.628587 7.844339 35.759106 56.625754 15.069812 -25.704303 8.185523 -0.831105 0.000000 0.000000 0.000000 
-0.006901 0.878770 -0.061438 -2.695970 8.842662 -5.057363 9.912548 -0.571751 -19.113114 -6.971498 0.000078 42.972803 0.838262 6.432772 10.951284 0.000000 0.000000 0.000000 0.155889 2.131856 -25.659986 -5.920677 3.413961 51.705201 6.965812 12.267952 7.046327 0.000000 0.000000 0.000000 1.238993 -2.328569 29.517295 -2.503922 0.930330 8.318856 -7.425615 4.176584 10.236390 8.584969 -3.288514 -16.397055 0.000000 0.000000 0.000000 4.629525 -38.035136 11.225912 -15.882580 -55.381516 2.187705 26.640685 -4.055781 -0.994881 0.000000 0.000000 0.000000 -4.923884 24.666633 7.750473 35.121869 56.722601 14.811737 -25.964840 9.224756 -1.045224 0.000000 0.000000 0.000000 
-0.007335 0.883499 -0.062526 -2.804577 9.226711 -4.521973 9.849518 -0.602071 -18.930389 -6.557618 -0.187944 41.333360 0.597105 6.085512 10.944521 0.000000 0.000000 0.000000 0.015385 2.059254 -25.363257 -5.527623 3.013759 50.082310 6.831064 11.841996 7.300345 0.000000 0.000000 0.000000 1.149093 -2.339088 29.486979 -2.368158 0.843134 8.146084 -7.296561 3.668598 10.425573 8.559522 -3.303164 -16.461824 0.000000 0.000000 0.000000 6.037120 -38.150203 10.972854 -12.927436 -55.875164 0.895538 25.618231 -2.602421 -0.642073 0.000000 0.000000 0.000000 -5.776737 24.822441 7.594951 34.533631 57.754971 14.904498 -25.956237 9.949917 -1.207044 0.000000 0.000000 0.000000 
-0.007826 0.887176 -0.063567 -3.026486 9.216168 -4.192307 9.826468 -0.593413 -18.450780 -5.983350 -0.370195 39.753110 0.593243 5.965603 10.566576 0.000000 0.000000 0.000000 0.117672 2.057494 -24.929046 -5.060804 2.695443 48.614284 6.401874 11.089377 7.067927 0.000000 0.000000 0.000000 0.945002 -2.275705 29.351615 -2.220263 0.759239 8.070420 -7.151452 3.383772 10.400446 8.345442 -3.225748 -16.293879 0.000000 0.000000 0.000000 7.549537 -38.123435 10.643632 -9.972872 -56.053310 -0.431865 24.573909 -1.326357 -0.360856 0.000000 0.000000 0.000000 -6.238081 25.205706 7.611394 34.255104 59.219898 15.330633 -26.360979 9.925485 -1.245816 0.000000 0.000000 0.000000 
-0.008306 0.890306 -0.064566 -3.189232 9.178038 -3.918463 9.916554 -0.582304 -18.334459 -5.738983 -0.421219 38.842020 0.474613 5.905765 10.916082 0.000000 0.000000 0.000000 0.290287 2.081943 -24.668814 -4.890294 2.575052 47.336743 6.303700 10.636755 7.481654 0.000000 0.000000 0.000000 0.702655 -2.214336 29.362828 -1.942145 0.597806 8.092363 -7.009685 2.841055 10.530138 8.189308 -3.200738 -16.247680 0.000000 0.000000 0.000000 9.196263 -38.226560 10.300635 -6.681939 -56.339951 -1.875944 23.571094 0.634176 0.016540 0.000000 0.000000 0.000000 -6.925474 25.881658 7.652523 32.790922 61.346013 15.287484 -26.130026 9.745410 -1.239364 0.000000 0.000000 0.000000 
-0.008714 0.892525 -0.065662 -3.450288 8.800796 -3.852509 10.068338 -0.541119 -18.142667 -5.448461 -0.460275 38.307604 0.512443 6.067003 11.253189 0.000000 0.000000 0.000000 0.597829 2.154866 -24.435773 -4.544220 2.443933 46.292654 6.055969 9.739873 8.089838 0.000000 0.000000 0.000000 0.663801 -2.189167 29.478229 -1.989551 0.629571 8.250785 -6.816335 2.578051 10.364569 8.076643 -3.292016 -15.611531 0.000000 0.000000 0.000000 10.601476 -38.697761 10.084214 -4.136479 -56.691169 -2.999714 22.752654 2.146032 0.280195 0.000000 0.000000 0.000000 -7.582344 26.088700 7.556216 32.852396 64.128948 16.402173 -26.188319 8.777525 -1.083527 0.000000 0.000000 0.000000 
-0.009081 0.893558 -0.066736 -3.703026 8.297213 -3.849397 10.262615 -0.492142 -18.041920 -5.266113 -0.452285 38.125470 0.651427 6.335099 11.476516 0.000000 0.000000 0.000000 1.053070 2.275298 -24.384769 -4.702226 2.634523 45.931974 6.164690 9.923313 8.147155 0.000000 0.000000 0.000000 0.369265 -2.074020 29.484696 -1.755985 0.469265 9.067808 -6.659059 2.379485 9.787360 7.793237 -3.219846 -15.178489 0.000000 0.000000 0.000000 11.807710 -38.522324 9.770807 -2.561280 -57.384401 -3.720095 21.902729 3.734900 0.528692 0.000000 0.000000 0.000000 -8.050007 26.716933 7.648425 31.860188 67.174990 16.980708 -25.166406 6.983998 -0.731440 0.000000 0.000000 0.000000 
-0.009412 0.893629 -0.067953 -3.843988 7.730935 -4.036947 10.359256 -0.447961 -18.012762 -5.190993 -0.468658 39.472198 0.672058 5.495744 9.218237 0.000000 0.000000 0.000000 1.212444 2.349739 -24.510203 -4.444660 2.621982 45.847688 6.304043 9.577199 9.158208 0.000000 0.000000 0.000000 0.414687 -2.079330 29.892679 -1.987594 0.633112 8.965361 -6.448339 2.215045 10.253253 7.497300 -3.068737 -15.261276 0.000000 0.000000 0.000000 12.841072 -39.021389 9.581785 -1.718128 -57.795946 -4.091704 21.244261 4.760853 0.673232 0.000000 0.000000 0.000000 -8.941233 27.130436 7.521304 32.563472 70.661373 18.831612 -23.900969 4.539638 -0.281257 0.000000 0.000000 0.000000 
-0.009694 0.894096 -0.069362 -3.901087 7.154515 -4.228056 10.511201 -0.396075 -17.939278 -5.245713 -0.411726 40.769047 0.481441 4.340165 7.224506 0.000000 0.000000 0.000000 1.373217 2.409345 -24.453342 -4.455655 2.755403 45.721148 6.509286 9.752761 9.524212 0.000000 0.000000 0.000000 0.212607 -2.019700 30.362743 -1.798139 0.533366 9.234224 -6.241073 2.143720 10.095551 7.412442 -2.988898 -15.581039 0.000000 0.000000 0.000000 13.040354 -39.358121 9.594114 -1.590267 -57.694506 -4.052372 20.247912 5.072845 0.687212 0.000000 0.000000 0.000000 -9.210896 28.189217 7.753177 31.138910 73.216116 18.840123 -22.218742 1.504946 0.222195 0.000000 0.000000 0.000000 
-0.009970 0.896031 -0.071231 -3.895069 6.811819 -4.413944 10.296973 -0.394611 -17.647285 -4.906868 -0.560783 41.608465 0.421921 3.392316 5.264069 0.000000 0.000000 0.000000 1.410239 2.418771 -24.251457 -4.322955 2.741062 45.130947 6.643850 9.381394 10.580892 0.000000 0.000000 0.000000 0.115999 -2.000698 30.780643 -1.934680 0.616242 9.542047 -6.013369 1.939271 10.404863 7.120715 -2.757986 -16.115873 0.000000 0.000000 0.000000 13.569907 -39.383320 9.429301 -1.441445 -58.183322 -4.098862 19.196584 5.121632 0.659490 0.000000 0.000000 0.000000 -10.283074 28.844325 7.644337 29.865220 75.541536 18.789337 -21.080262 -1.726365 0.702106 0.000000 0.000000 0.000000 
-0.010275 0.899968 -0.073625 -3.870855 6.519926 -4.470681 10.347800 -0.361755 -17.124296 -4.807714 -0.552916 41.539454 0.036615 2.057996 3.955286 0.000000 0.000000 0.000000 1.432428 2.398815 -23.792207 -4.334390 2.759857 43.694136 7.048257 9.324214 12.044606 0.000000 0.000000 0.000000 -0.038400 -1.963145 31.140956 -1.908824 0.623819 9.296155 -5.890530 1.834581 11.170138 6.873921 -2.619811 -16.272354 0.000000 0.000000 0.000000 14.172750 -39.272999 9.199106 -0.751731 -58.141087 -4.400295 18.600976 4.499118 0.560017 0.000000 0.000000 0.000000 -10.732333 29.692479 7.721758 26.431554 76.762298 16.538282 -20.397969 -3.532536 0.936760 0.000000 0.000000 0.000000 
-0.010633 0.904507 -0.076456 -3.739775 6.307114 -4.343658 10.473174 -0.329215 -16.661677 -4.911141 -0.402715 40.407246 -0.531452 1.110864 4.290940 0.000000 0.000000 0.000000 1.252989 2.357280 -23.627945 -4.254675 2.721810 42.509635 7.485026 9.303191 13.531508 0.000000 0.000000 0.000000 -0.161261 -1.889141 30.931764 -1.991442 0.669892 9.520439 -5.753502 2.178974 11.554230 6.956928 -2.576033 -16.745429 0.000000 0.000000 0.000000 15.340295 -38.981732 8.824622 -0.346144 -58.305419 -4.708664 18.921282 3.941195 0.496442 0.000000 0.000000 0.000000 -11.191186 29.550027 7.544845 25.153872 76.801472 15.662012 -20.778985 -3.673248 0.977671 0.000000 0.000000 0.000000 
